<svg xmlns="http://www.w3.org/2000/svg" width="83.999" height="112" viewBox="0 0 83.999 112">
  <path id="Icon_awesome-award" data-name="Icon awesome-award" d="M21.245,79.325c-1.9-1.9-.91-1.365-5.495-2.592a15.782,15.782,0,0,1-5.563-2.914L.263,98.152a3.5,3.5,0,0,0,3.375,4.819l11.526-.44,7.927,8.374a3.5,3.5,0,0,0,5.781-1.085L40.258,81.9a15.7,15.7,0,0,1-19.013-2.579ZM83.736,98.152,73.812,73.819a15.747,15.747,0,0,1-5.563,2.914c-4.609,1.234-3.6.7-5.495,2.592A15.7,15.7,0,0,1,43.738,81.9L55.124,109.82a3.5,3.5,0,0,0,5.781,1.085l7.93-8.374,11.526.44a3.5,3.5,0,0,0,3.375-4.819ZM57.53,74.375c3.342-3.4,3.725-3.108,8.485-4.406a8.889,8.889,0,0,0,6.228-6.339c1.636-6.212,1.212-5.462,5.676-10.008A9.074,9.074,0,0,0,80.2,44.964c-1.634-6.208-1.636-5.342,0-11.556A9.074,9.074,0,0,0,77.92,24.75c-4.465-4.546-4.04-3.8-5.676-10.008A8.889,8.889,0,0,0,66.016,8.4c-6.1-1.665-5.364-1.229-9.833-5.777A8.7,8.7,0,0,0,47.676.305c-6.1,1.662-5.246,1.665-11.353,0a8.7,8.7,0,0,0-8.507,2.321c-4.465,4.546-3.73,4.112-9.83,5.777a8.889,8.889,0,0,0-6.228,6.339c-1.634,6.21-1.212,5.462-5.676,10.008A9.069,9.069,0,0,0,3.8,33.408c1.634,6.2,1.636,5.337,0,11.554a9.08,9.08,0,0,0,2.279,8.66c4.465,4.546,4.04,3.8,5.676,10.008a8.889,8.889,0,0,0,6.228,6.339c4.9,1.334,5.261,1.124,8.483,4.406a8.693,8.693,0,0,0,10.88,1.273,8.679,8.679,0,0,1,9.3,0A8.691,8.691,0,0,0,57.53,74.375ZM21.363,38.492A20.64,20.64,0,1,1,42,59.5,20.823,20.823,0,0,1,21.363,38.492Z" transform="translate(0 0)" fill="#fff"/>
</svg>
