<svg xmlns="http://www.w3.org/2000/svg" width="217.455" height="99.962" viewBox="0 0 217.455 99.962">
  <path id="Icon_map-university" data-name="Icon map-university" d="M109.72,70.88c-24.564,0-45.433,7.143-59.064,18.339v20.824H168.793V89.219C155.162,78.023,134.288,70.88,109.72,70.88ZM218.184,60.193,109.433,10.08.729,60.193l18.12,8.292V81.24c-4.544.941-4.557,3.321-4.557,6.152a7.6,7.6,0,0,0,1.608,4.8L9.684,105.5H31.858L25.7,92.186a7.312,7.312,0,0,0,1.886-4.571c0-2.826-4.189-5.439-4.189-6.379V70.616L46.112,80.822v-.9c13.631-11.855,37.581-19.379,63.6-19.379s49.99,7.524,63.622,19.379v.9Z" transform="translate(-0.729 -10.08)" fill="#fff"/>
</svg>
