<svg xmlns="http://www.w3.org/2000/svg" width="92.501" height="105.715" viewBox="0 0 92.501 105.715">
  <path id="Icon_awesome-book" data-name="Icon awesome-book" d="M92.5,74.331V4.955A4.944,4.944,0,0,0,87.545,0H19.822A19.827,19.827,0,0,0,0,19.822V85.894a19.827,19.827,0,0,0,19.822,19.822H87.545A4.944,4.944,0,0,0,92.5,100.76v-3.3A4.994,4.994,0,0,0,90.663,93.6c-.867-3.18-.867-12.244,0-15.424A4.921,4.921,0,0,0,92.5,74.331ZM26.429,27.668a1.242,1.242,0,0,1,1.239-1.239H71.44a1.242,1.242,0,0,1,1.239,1.239V31.8a1.242,1.242,0,0,1-1.239,1.239H27.668A1.242,1.242,0,0,1,26.429,31.8Zm0,13.214a1.242,1.242,0,0,1,1.239-1.239H71.44a1.242,1.242,0,0,1,1.239,1.239v4.129A1.242,1.242,0,0,1,71.44,46.25H27.668a1.242,1.242,0,0,1-1.239-1.239ZM78.749,92.5H19.822a6.607,6.607,0,0,1,0-13.214H78.749A74.333,74.333,0,0,0,78.749,92.5Z" fill="#fff"/>
</svg>
