<svg xmlns="http://www.w3.org/2000/svg" width="33.835" height="23.424" viewBox="0 0 33.835 23.424">
  <g id="Group_42" data-name="Group 42" transform="translate(-455.428 -28.288)">
    <path id="Path_1" data-name="Path 1" d="M36.934,10.364l-8.752,8.914a.157.157,0,0,0,0,.228l6.124,6.523a1.055,1.055,0,0,1,0,1.5,1.06,1.06,0,0,1-1.5,0l-6.1-6.5a.167.167,0,0,0-.236,0L24.986,22.54a6.549,6.549,0,0,1-4.669,1.968,6.68,6.68,0,0,1-4.766-2.025l-1.431-1.456a.167.167,0,0,0-.236,0l-6.1,6.5a1.06,1.06,0,0,1-1.5,0,1.055,1.055,0,0,1,0-1.5l6.124-6.523a.173.173,0,0,0,0-.228l-8.76-8.914a.16.16,0,0,0-.277.114V28.314a2.61,2.61,0,0,0,2.6,2.6h28.63a2.61,2.61,0,0,0,2.6-2.6V10.478A.163.163,0,0,0,36.934,10.364Z" transform="translate(452.053 20.795)" fill="#fff"/>
    <path id="Path_2" data-name="Path 2" d="M20.159,22.767a4.422,4.422,0,0,0,3.18-1.334L36.1,8.444a2.556,2.556,0,0,0-1.61-.569H5.836a2.539,2.539,0,0,0-1.61.569L16.987,21.433A4.422,4.422,0,0,0,20.159,22.767Z" transform="translate(452.187 20.413)" fill="#fff"/>
  </g>
</svg>
