<svg xmlns="http://www.w3.org/2000/svg" width="29.838" height="25.667" viewBox="0 0 29.838 25.667">
  <path id="Icon_awesome-cash-register" data-name="Icon awesome-cash-register" d="M29.784,18.989l-1.556-8.021A1.807,1.807,0,0,0,26.386,9.63H12.12V6.422h5.594a.877.877,0,0,0,.932-.8V.8a.877.877,0,0,0-.932-.8H2.8a.877.877,0,0,0-.932.8V5.615a.877.877,0,0,0,.932.8H8.391V9.625H3.443A1.812,1.812,0,0,0,1.6,10.963L.045,18.984a2.687,2.687,0,0,0-.052.526v4.552a1.747,1.747,0,0,0,1.865,1.6H27.965a1.747,1.747,0,0,0,1.865-1.6V19.516A2.3,2.3,0,0,0,29.784,18.989ZM16.316,12.432a.877.877,0,0,1,.932-.8h.932a.877.877,0,0,1,.932.8v.8a.877.877,0,0,1-.932.8h-.932a.877.877,0,0,1-.932-.8Zm-1.865,3.208h.932a.877.877,0,0,1,.932.8v.8a.877.877,0,0,1-.932.8h-.932a.877.877,0,0,1-.932-.8v-.8A.877.877,0,0,1,14.451,15.641Zm-1.865-4.01a.877.877,0,0,1,.932.8v.8a.877.877,0,0,1-.932.8h-.932a.877.877,0,0,1-.932-.8v-.8a.877.877,0,0,1,.932-.8ZM4.661,4.01v-1.6H15.85v1.6ZM6.992,14.036H6.059a.877.877,0,0,1-.932-.8v-.8a.877.877,0,0,1,.932-.8h.932a.877.877,0,0,1,.932.8v.8A.877.877,0,0,1,6.992,14.036Zm.932,3.208v-.8a.877.877,0,0,1,.932-.8h.932a.877.877,0,0,1,.932.8v.8a.877.877,0,0,1-.932.8H8.857A.877.877,0,0,1,7.924,17.245Zm12.588,5.615a.439.439,0,0,1-.466.4H9.789a.439.439,0,0,1-.466-.4v-.8a.439.439,0,0,1,.466-.4H20.046a.439.439,0,0,1,.466.4Zm1.4-5.615a.877.877,0,0,1-.932.8h-.932a.877.877,0,0,1-.932-.8v-.8a.877.877,0,0,1,.932-.8h.932a.877.877,0,0,1,.932.8Zm2.8-4.01a.877.877,0,0,1-.932.8h-.932a.877.877,0,0,1-.932-.8v-.8a.877.877,0,0,1,.932-.8h.932a.877.877,0,0,1,.932.8Z" transform="translate(0.007)" fill="#fff"/>
</svg>
