<svg xmlns="http://www.w3.org/2000/svg" width="23.572" height="23.617" viewBox="0 0 23.572 23.617">
  <path id="Icon_feather-phone-call" data-name="Icon feather-phone-call" d="M17.768,6.014a5.642,5.642,0,0,1,4.457,4.457M17.768,1.5a10.156,10.156,0,0,1,8.971,8.96m-1.128,9.005v3.385a2.257,2.257,0,0,1-2.46,2.257,22.332,22.332,0,0,1-9.739-3.464,22.005,22.005,0,0,1-6.771-6.771A22.332,22.332,0,0,1,3.177,5.089a2.257,2.257,0,0,1,2.246-2.46H8.808a2.257,2.257,0,0,1,2.257,1.941,14.489,14.489,0,0,0,.79,3.171,2.257,2.257,0,0,1-.508,2.381L9.914,11.555a18.056,18.056,0,0,0,6.771,6.771l1.433-1.433a2.257,2.257,0,0,1,2.381-.508,14.49,14.49,0,0,0,3.171.79A2.257,2.257,0,0,1,25.611,19.465Z" transform="translate(-3.168 -1.5)" fill="#fff"/>
</svg>
