<svg xmlns="http://www.w3.org/2000/svg" width="140" height="112" viewBox="0 0 140 112">
  <path id="Icon_awesome-chalkboard-teacher" data-name="Icon awesome-chalkboard-teacher" d="M45.5,77a5,5,0,0,0-1.544.238A28.856,28.856,0,0,1,35,78.75a28.881,28.881,0,0,1-8.958-1.512A4.991,4.991,0,0,0,24.5,77,24.5,24.5,0,0,0,0,101.636,10.473,10.473,0,0,0,10.5,112h49A10.473,10.473,0,0,0,70,101.636,24.5,24.5,0,0,0,45.5,77ZM35,70A21,21,0,1,0,14,49,21,21,0,0,0,35,70ZM129.5,0h-84A10.69,10.69,0,0,0,35,10.848V21a27.682,27.682,0,0,1,14,3.894V14h77V77H112V63H84V77H67.323A27.88,27.88,0,0,1,76,91h53.5A10.69,10.69,0,0,0,140,80.152v-69.3A10.69,10.69,0,0,0,129.5,0Z" transform="translate(0)" fill="#fff"/>
</svg>
